HIERARCHY
ROOT hip
{
  OFFSET 0 0 0
  CHANNELS 6 Xposition Yposition Zposition Zrotation Yrotation Xrotation
  JOINT abdomen
  {
    OFFSET 0 20.6881 -0.73152
    CHANNELS 3 Zrotation Xrotation Yrotation
    JOINT chest
    {
      OFFSET 0 11.7043 -0.48768
      CHANNELS 3 Zrotation Xrotation Yrotation
      JOINT neck
      {
        OFFSET 0 22.1894 -2.19456
        CHANNELS 3 Zrotation Xrotation Yrotation
        JOINT head
        {
          OFFSET -0.24384 7.07133 1.2192
          CHANNELS 3 Zrotation Xrotation Yrotation
          JOINT leftEye
          {
            OFFSET 4.14528 8.04674 8.04672
            CHANNELS 3 Zrotation Xrotation Yrotation
            End Site
            {
              OFFSET 1 0 0
            }
          }
          JOINT rightEye
          {
            OFFSET -3.6576 8.04674 8.04672
            CHANNELS 3 Zrotation Xrotation Yrotation
            End Site
            {
              OFFSET 1 0 0
            }
          }
        }
      }
      JOINT rCollar
      {
        OFFSET -2.68224 19.2634 -4.8768
        CHANNELS 3 Zrotation Xrotation Yrotation
        JOINT rShldr
        {
          OFFSET -8.77824 -1.95073 1.46304
          CHANNELS 3 Zrotation Xrotation Yrotation
          JOINT rForeArm
          {
            OFFSET -28.1742 -1.7115 0.48768
            CHANNELS 3 Zrotation Xrotation Yrotation
            JOINT rHand
            {
              OFFSET -22.5879 0.773209 7.07136
              CHANNELS 3 Zrotation Xrotation Yrotation
              JOINT rThumb1
              {
                OFFSET -1.2192 -0.487915 3.41376
                CHANNELS 3 Zrotation Xrotation Yrotation
                JOINT rThumb2
                {
                  OFFSET -3.37035 -0.52449 3.41376
                  CHANNELS 3 Zrotation Xrotation Yrotation
                  End Site
                  {
                    OFFSET -1.78271 -1.18214 1.43049
                  }
                }
              }
              JOINT rIndex1
              {
                OFFSET -7.75947 0.938293 5.60832
                CHANNELS 3 Zrotation Xrotation Yrotation
                JOINT rIndex2
                {
                  OFFSET -2.54057 -0.884171 1.56538
                  CHANNELS 3 Zrotation Xrotation Yrotation
                  End Site
                  {
                    OFFSET -1.62519 -0.234802 1.16502
                  }
                }
              }
              JOINT rMid1
              {
                OFFSET -8.24714 1.18213 3.41376
                CHANNELS 3 Zrotation Xrotation Yrotation
                JOINT rMid2
                {
                  OFFSET -3.10165 -0.590103 1.0647
                  CHANNELS 3 Zrotation Xrotation Yrotation
                  End Site
                  {
                    OFFSET -2.48547 -0.328903 0.83742
                  }
                }
              }
              JOINT rRing1
              {
                OFFSET -8.82822 0.546677 1.51678
                CHANNELS 3 Zrotation Xrotation Yrotation
                JOINT rRing2
                {
                  OFFSET -2.60934 -0.819778 -0.0198488
                  CHANNELS 3 Zrotation Xrotation Yrotation
                  End Site
                  {
                    OFFSET -2.33842 -0.294052 0.168128
                  }
                }
              }
              JOINT rPinky1
              {
                OFFSET -8.27202 -0.0477905 -0.4584
                CHANNELS 3 Zrotation Xrotation Yrotation
                JOINT rPinky2
                {
                  OFFSET -1.82734 -0.647385 -0.700984
                  CHANNELS 3 Zrotation Xrotation Yrotation
                  End Site
                  {
                    OFFSET -1.69225 -0.51767 -0.607171
                  }
                }
              }
            }
          }
        }
      }
      JOINT lCollar
      {
        OFFSET 2.68224 19.2634 -4.8768
        CHANNELS 3 Zrotation Xrotation Yrotation
        JOINT lShldr
        {
          OFFSET 8.77824 -1.95073 1.46304
          CHANNELS 3 Zrotation Xrotation Yrotation
          JOINT lForeArm
          {
            OFFSET 28.1742 -1.7115 0.48768
            CHANNELS 3 Zrotation Xrotation Yrotation
            JOINT lHand
            {
              OFFSET 22.5879 0.773209 7.07136
              CHANNELS 3 Zrotation Xrotation Yrotation
              JOINT lThumb1
              {
                OFFSET 1.2192 -0.487915 3.41376
                CHANNELS 3 Zrotation Xrotation Yrotation
                JOINT lThumb2
                {
                  OFFSET 3.37035 -0.52449 3.41376
                  CHANNELS 3 Zrotation Xrotation Yrotation
                  End Site
                  {
                    OFFSET 1.78271 -1.18214 1.43049
                  }
                }
              }
              JOINT lIndex1
              {
                OFFSET 7.75947 0.938293 5.60832
                CHANNELS 3 Zrotation Xrotation Yrotation
                JOINT lIndex2
                {
                  OFFSET 2.54057 -0.884171 1.56538
                  CHANNELS 3 Zrotation Xrotation Yrotation
                  End Site
                  {
                    OFFSET 1.62519 -0.234802 1.16502
                  }
                }
              }
              JOINT lMid1
              {
                OFFSET 8.24714 1.18213 3.41376
                CHANNELS 3 Zrotation Xrotation Yrotation
                JOINT lMid2
                {
                  OFFSET 3.10165 -0.590103 1.0647
                  CHANNELS 3 Zrotation Xrotation Yrotation
                  End Site
                  {
                    OFFSET 2.48547 -0.328903 0.83742
                  }
                }
              }
              JOINT lRing1
              {
                OFFSET 8.82822 0.546677 1.51678
                CHANNELS 3 Zrotation Xrotation Yrotation
                JOINT lRing2
                {
                  OFFSET 2.60934 -0.819778 -0.0198488
                  CHANNELS 3 Zrotation Xrotation Yrotation
                  End Site
                  {
                    OFFSET 2.33842 -0.294052 0.168128
                  }
                }
              }
              JOINT lPinky1
              {
                OFFSET 8.27202 -0.0477905 -0.4584
                CHANNELS 3 Zrotation Xrotation Yrotation
                JOINT lPinky2
                {
                  OFFSET 1.82734 -0.647385 -0.700984
                  CHANNELS 3 Zrotation Xrotation Yrotation
                  End Site
                  {
                    OFFSET 1.69225 -0.51767 -0.607171
                  }
                }
              }
            }
          }
        }
      }
    }
  }
  JOINT rButtock
  {
    OFFSET -8.77824 4.35084 1.2192
    CHANNELS 3 Zrotation Xrotation Yrotation
    JOINT rThigh
    {
      OFFSET 0 -1.70687 -2.19456
      CHANNELS 3 Zrotation Xrotation Yrotation
      JOINT rShin
      {
        OFFSET 0 -36.8199 0.73152
        CHANNELS 3 Zrotation Xrotation Yrotation
        JOINT rFoot
        {
          OFFSET 0.73152 -45.1104 -5.12064
          CHANNELS 3 Zrotation Xrotation Yrotation
          End Site
          {
            OFFSET -1.1221 -3.69964 12.103
          }
        }
      }
    }
  }
  JOINT lButtock
  {
    OFFSET 8.77824 4.35084 1.2192
    CHANNELS 3 Zrotation Xrotation Yrotation
    JOINT lThigh
    {
      OFFSET 0 -1.70687 -2.19456
      CHANNELS 3 Zrotation Xrotation Yrotation
      JOINT lShin
      {
        OFFSET 0 -36.8199 0.73152
        CHANNELS 3 Zrotation Xrotation Yrotation
        JOINT lFoot
        {
          OFFSET -0.73152 -45.1104 -5.12064
          CHANNELS 3 Zrotation Xrotation Yrotation
          End Site
          {
            OFFSET 1.1221 -3.69964 12.103
          }
        }
      }
    }
  }
}
MOTION
Frames:	9
Frame Time:	0.00833333
34.405 85.5069 29.1143 0.0 0.0 0.0 2.23592 -0.000460349 0.0604489 0.615868 0.00897276 0.106603 6.04065e-14 -7.95139e-16 3.9757e-16 1.81652e-13 -6.36111e-15 1.06691e-15 -0.0 0.0 0.0 -0.0 0.0 0.0 3.04629e-14 -9.62863e-17 3.97569e-16 6.38297e-13 -2.14936e-15 6.16232e-15 1.09637e-11 -3.34097e-12 -3.49861e-14 1.25269e-10 2.91592e-12 8.26944e-13 2.95518e-10 -9.15789e-13 1.73022e-12 5.10328e-10 -1.57437e-12 2.97143e-12 2.95524e-10 -9.14409e-13 1.7175e-12 7.73091 5.47488 0.417314 2.95517e-10 -9.15602e-13 1.73022e-12 2.90554 0.965183 0.102902 2.95524e-10 -9.15602e-13 1.73022e-12 10.2786 0.731801 0.0259123 2.95512e-10 -9.13217e-13 1.74294e-12 2.22167 -0.733487 -0.20892 3.03672e-14 -9.60922e-17 4.96962e-17 6.34693e-13 -2.66496e-15 4.57205e-15 1.09346e-11 3.21057e-12 -4.13472e-14 1.25295e-10 -3.65597e-12 8.65111e-13 2.95516e-10 -9.55506e-13 1.73976e-12 5.10347e-10 -1.64117e-12 2.98416e-12 2.95511e-10 -9.52179e-13 1.74931e-12 -7.73091 5.47488 -0.417314 2.95515e-10 -9.5526e-13 1.73658e-12 -2.90554 0.965183 -0.102902 2.95512e-10 -9.5526e-13 1.7342e-12 -10.2786 0.731801 -0.0259123 2.95519e-10 -9.53371e-13 1.72704e-12 -2.22167 -0.733487 0.20892 -2.03217e-16 0.0 -3.88251e-19 2.21203 -7.80167 -0.224272 0.00521835 8.55964 0.135852 -0.549152 -0.766571 0.0462707 2.03217e-16 0.0 3.88251e-19 1.18689 -1.92859 -0.00259054 0.00907011 -2.07858 0.0747963 0.510739 3.99848 -0.140126
34.9751 85.1977 27.9084 0.7207 0.3258 3.2807 1.99831 -2.60075 0.860068 0.159993 0.619457 0.358606 -1.03083 5.29008 -0.630756 2.92379 -7.93678 -0.592874 -0.0 0.0 0.0 -0.0 0.0 0.0 1.55845e-14 2.32797e-15 -1.16437e-15 22.9687 6.47517 -0.389318 -3.97689 -1.7608 6.26123 0.00217727 1.07223 0.15061 3.6294e-10 -1.6798e-11 -4.22385e-11 6.26759e-10 -2.80588e-11 -7.3763e-11 3.62947e-10 -1.6797e-11 -4.22524e-11 7.73091 5.47488 0.417314 3.6294e-10 -1.67983e-11 -4.22375e-11 2.90554 0.965183 0.102902 3.62946e-10 -1.67981e-11 -4.22362e-11 10.2786 0.731801 0.0259123 3.62934e-10 -1.67956e-11 -4.22241e-11 2.22167 -0.733487 -0.20892 1.55131e-14 2.32779e-15 -1.4738e-15 -21.6968 9.713 -2.0271 3.30691 -1.35768 -5.31179 -0.0124114 -2.48846 0.348565 2.88136e-10 2.76269e-10 1.50096e-10 4.97168e-10 4.77571e-10 2.597e-10 2.8813e-10 2.76272e-10 1.50105e-10 -7.73091 5.47488 -0.417314 2.88135e-10 2.76269e-10 1.50093e-10 -2.90554 0.965183 -0.102902 2.8813e-10 2.7627e-10 1.50091e-10 -10.2786 0.731801 -0.0259123 2.88138e-10 2.76272e-10 1.50085e-10 -2.22167 -0.733487 0.20892 -2.03217e-16 0.0 -3.88251e-19 1.65991 -6.18025 3.00863 0.00620573 8.10903 0.118855 -0.885629 -5.56169 -6.26486 2.03217e-16 0.0 3.88251e-19 3.31249 -1.0571 -0.0859106 0.0059895 -2.03151 0.0466521 0.36474 0.884491 -1.76729
34.9597 85.1997 27.9077 0.4958 -0.0059 3.2845 1.81577 -5.33746 1.70844 -0.324411 1.26313 0.624603 -1.99497 10.8845 -1.31409 5.83658 -16.338 -1.25299 -0.0 0.0 0.0 -0.0 0.0 0.0 -4.59329e-16 4.62951e-15 -3.12154e-15 47.3463 13.2789 -0.814911 -7.78189 -3.56318 12.9258 -0.0017231 2.1734 0.305473 4.46827e-10 -3.45276e-11 -9.65722e-11 7.71607e-10 -5.75816e-11 -1.68539e-10 4.46835e-10 -3.45271e-11 -9.65873e-11 7.73091 5.47488 0.417314 4.46827e-10 -3.45287e-11 -9.657e-11 2.90554 0.965183 0.102902 4.46832e-10 -3.45283e-11 -9.65673e-11 10.2786 0.731801 0.0259123 4.4682e-10 -3.45256e-11 -9.65561e-11 2.22167 -0.733487 -0.20892 -5.03563e-16 4.62891e-15 -3.39176e-15 -43.8319 19.9491 -4.40064 6.53575 -2.75732 -10.9454 0.00771835 -5.15219 0.723944 2.82635e-10 5.90823e-10 3.18548e-10 4.87171e-10 1.02132e-09 5.51182e-10 2.82629e-10 5.90824e-10 3.18555e-10 -7.73091 5.47488 -0.417314 2.82635e-10 5.90822e-10 3.18545e-10 -2.90554 0.965183 -0.102902 2.82628e-10 5.90823e-10 3.18544e-10 -10.2786 0.731801 -0.0259123 2.82636e-10 5.90825e-10 3.18539e-10 -2.22167 -0.733487 0.20892 -2.03217e-16 0.0 -3.88251e-19 0.871836 -4.4569 6.40118 0.00697262 7.63184 0.100929 -2.39615 -10.4252 -13.0953 2.03217e-16 0.0 3.88251e-19 5.56361 -0.142147 -0.151185 0.00282417 -1.97336 0.0168117 0.00992723 -2.44433 -3.53691
35.0321 85.1957 27.9464 0.6363 -0.2969 3.2905 1.74249 -7.79499 2.47957 -0.767875 1.84025 0.862994 -2.73138 15.8624 -1.95882 8.23977 -23.7996 -1.92537 -0.0 0.0 0.0 -0.0 0.0 0.0 -1.41722e-14 7.17647e-15 -4.28824e-15 69.1837 19.4218 -1.23054 -10.7954 -5.03056 18.8501 -0.0104018 3.21659 0.452465 4.97785e-10 -4.85624e-11 -1.30176e-10 8.59622e-10 -8.10275e-11 -2.27232e-10 4.97793e-10 -4.85621e-11 -1.30192e-10 7.73091 5.47488 0.417314 4.97786e-10 -4.85638e-11 -1.30173e-10 2.90554 0.965183 0.102902 4.9779e-10 -4.85632e-11 -1.30169e-10 10.2786 0.731801 0.0259123 4.97778e-10 -4.85605e-11 -1.30158e-10 2.22167 -0.733487 -0.20892 -1.41952e-14 7.17556e-15 -4.5208e-15 -62.7825 28.9823 -6.85604 9.17483 -3.93325 -15.9695 0.0542544 -7.46428 1.05364 2.73375e-10 8.30719e-10 4.46809e-10 4.7081e-10 1.43599e-09 7.73133e-10 2.73368e-10 8.3072e-10 4.46816e-10 -7.73091 5.47488 -0.417314 2.73375e-10 8.30718e-10 4.46806e-10 -2.90554 0.965183 -0.102902 2.73367e-10 8.30719e-10 4.46806e-10 -10.2786 0.731801 -0.0259123 2.73375e-10 8.30722e-10 4.46802e-10 -2.22167 -0.733487 0.20892 -2.03217e-16 0.0 -3.88251e-19 0.00741302 -2.92271 9.43014 0.00737239 7.20781 0.0849927 -4.74978 -14.4198 -19.4339 2.03217e-16 0.0 3.88251e-19 7.57129 0.685872 -0.252528 -3.29113e-05 -1.93737 -0.00963119 -0.458556 -5.32168 -5.04348
35.1279 85.1913 28.0028 0.8971 -0.5623 3.2869 1.78949 -9.56043 3.03892 -1.09774 2.25114 1.03202 -3.15646 19.3064 -2.44391 9.75031 -28.9222 -2.49176 -0.0 0.0 0.0 -0.0 0.0 0.0 -2.20576e-14 1.0337e-14 -3.47873e-15 84.4772 23.9159 -1.56502 -12.6414 -5.90873 22.8584 -0.0208118 4.11489 0.579316 4.66422e-10 -5.33602e-11 -1.11956e-10 8.05558e-10 -8.92814e-11 -1.95715e-10 4.6643e-10 -5.33598e-11 -1.11971e-10 7.73091 5.47488 0.417314 4.66423e-10 -5.33612e-11 -1.11952e-10 2.90554 0.965183 0.102902 4.66427e-10 -5.33604e-11 -1.11947e-10 10.2786 0.731801 0.0259123 4.66416e-10 -5.33578e-11 -1.11936e-10 2.22167 -0.733487 -0.20892 -2.20741e-14 1.0336e-14 -3.67752e-15 -75.5352 35.1661 -8.75984 10.8665 -4.68485 -19.4369 0.0981106 -8.89843 1.26085 2.54716e-10 8.83973e-10 4.74593e-10 4.38541e-10 1.52795e-09 8.21254e-10 2.54709e-10 8.83974e-10 4.74599e-10 -7.73091 5.47488 -0.417314 2.54716e-10 8.83972e-10 4.7459e-10 -2.90554 0.965183 -0.102902 2.54708e-10 8.83973e-10 4.7459e-10 -10.2786 0.731801 -0.0259123 2.54716e-10 8.83976e-10 4.74586e-10 -2.22167 -0.733487 0.20892 -2.03217e-16 0.0 -3.88251e-19 -0.664636 -1.85685 11.5735 0.00742651 6.91671 0.0739389 -6.95325 -16.9332 -24.031 2.03217e-16 0.0 3.88251e-19 8.96853 1.29655 -0.444041 -0.00225712 -1.95683 -0.0275852 -0.801562 -7.097 -5.85821
35.1667 85.1894 28.0472 0.9051 -0.7699 3.2946 1.95975 -10.3716 3.29695 -1.27306 2.44008 1.10566 -3.25766 20.6031 -2.65943 10.1869 -30.7663 -2.80771 -0.0 0.0 0.0 -0.0 0.0 0.0 -2.08419e-14 1.29774e-14 1.10962e-15 90.4916 26.1934 -1.69962 -13.176 -6.12033 24.1191 -0.0298514 4.8469 0.682855 2.59786e-10 -3.38194e-11 2.25823e-11 4.49055e-10 -5.7e-11 3.81905e-11 2.59792e-10 -3.38179e-11 2.25682e-11 7.73091 5.47488 0.417314 2.59786e-10 -3.38184e-11 2.25843e-11 2.90554 0.965183 0.102902 2.59791e-10 -3.38173e-11 2.25921e-11 10.2786 0.731801 0.0259123 2.59781e-10 -3.38154e-11 2.26029e-11 2.22167 -0.733487 -0.20892 -2.08755e-14 1.29768e-14 9.46168e-16 -80.6302 37.4852 -9.24118 11.4743 -4.94626 -20.742 0.107916 -9.07757 1.28724 2.27712e-10 6.0689e-10 2.9857e-10 3.92509e-10 1.04881e-09 5.16857e-10 2.27704e-10 6.06892e-10 2.98579e-10 -7.73091 5.47488 -0.417314 2.27713e-10 6.06889e-10 2.98568e-10 -2.90554 0.965183 -0.102902 2.27704e-10 6.0689e-10 2.98567e-10 -10.2786 0.731801 -0.0259123 2.27712e-10 6.06893e-10 2.98564e-10 -2.22167 -0.733487 0.20892 -2.03217e-16 0.0 -3.88251e-19 -0.877718 -1.43365 12.4978 0.00718213 6.81356 0.0697146 -7.95726 -17.8548 -25.8824 2.03217e-16 0.0 3.88251e-19 9.52587 1.59994 -0.783877 -0.00347669 -2.05137 -0.0337609 -0.78023 -7.27541 -5.62198
35.1882 85.1696 28.0948 0.8173 -0.8788 3.3425 2.19928 -10.502 3.33513 -1.33633 2.47001 1.11099 -3.15989 20.3679 -2.66794 9.91962 -30.2721 -2.90579 -0.0 0.0 0.0 -0.0 0.0 0.0 -1.31704e-14 1.53119e-14 8.34896e-15 89.8488 26.8843 -1.67716 -12.8363 -5.8962 23.4109 -0.0373417 5.45839 0.769477 -6.91877e-11 2.56291e-12 2.3812e-10 -1.18546e-10 3.31752e-12 4.13035e-10 -6.91843e-11 2.56604e-12 2.38109e-10 7.73091 5.47488 0.417314 -6.91889e-11 2.56703e-12 2.3812e-10 2.90554 0.965183 0.102902 -6.91825e-11 2.56854e-12 2.3813e-10 10.2786 0.731801 0.0259123 -6.91898e-11 2.56919e-12 2.38142e-10 2.22167 -0.733487 -0.20892 -1.32378e-14 1.5312e-14 8.22161e-15 -80.5108 37.0753 -8.51561 11.3546 -4.88225 -20.4959 0.0901749 -8.36165 1.18394 1.94518e-10 9.71401e-11 -2.00226e-11 3.36241e-10 1.67427e-10 -3.4141e-11 1.94509e-10 9.71432e-11 -2.00094e-11 -7.73091 5.47488 -0.417314 1.94519e-10 9.71385e-11 -2.00234e-11 -2.90554 0.965183 -0.102902 1.94509e-10 9.71394e-11 -2.00243e-11 -10.2786 0.731801 -0.0259123 1.94518e-10 9.71416e-11 -2.00285e-11 -2.22167 -0.733487 0.20892 -2.03217e-16 0.0 -3.88251e-19 -0.723985 -1.46296 12.5501 0.00678438 6.84458 0.0703592 -7.87917 -17.7815 -25.6925 2.03217e-16 0.0 3.88251e-19 9.48152 1.68392 -1.22857 -0.0039714 -2.19965 -0.0315181 -0.500216 -6.31563 -4.63634
35.2062 85.1372 28.1663 0.7005 -0.9046 3.3877 2.426 -10.3432 3.27152 -1.33945 2.41924 1.08587 -3.00325 19.5286 -2.59233 9.42603 -28.8611 -2.89977 -0.0 0.0 0.0 -0.0 0.0 0.0 -4.42464e-15 1.97307e-14 1.50292e-14 86.573 26.7978 -1.65863 -12.1519 -5.50357 21.9593 -0.0438109 5.96323 0.84112 -3.51058e-10 2.74311e-11 4.16037e-10 -6.04943e-10 4.40237e-11 7.22505e-10 -3.51057e-10 2.74356e-11 4.16028e-10 7.73091 5.47488 0.417314 -3.5106e-10 2.74381e-11 4.16034e-10 2.90554 0.965183 0.102902 -3.51052e-10 2.74398e-11 4.16047e-10 10.2786 0.731801 0.0259123 -3.51057e-10 2.74395e-11 4.1606e-10 2.22167 -0.733487 -0.20892 -4.52796e-15 1.97315e-14 1.49271e-14 -78.2484 35.5656 -7.35726 10.9112 -4.66851 -19.5689 0.0669281 -7.33021 1.03591 1.51148e-10 -3.95217e-10 -2.94623e-10 2.62264e-10 -6.83971e-10 -5.09127e-10 1.51138e-10 -3.95213e-10 -2.94606e-10 -7.73091 5.47488 -0.417314 1.51149e-10 -3.95219e-10 -2.94622e-10 -2.90554 0.965183 -0.102902 1.5114e-10 -3.95218e-10 -2.94623e-10 -10.2786 0.731801 -0.0259123 1.51149e-10 -3.95217e-10 -2.94629e-10 -2.22167 -0.733487 0.20892 -2.03217e-16 0.0 -3.88251e-19 -0.456084 -1.6673 12.2246 0.00642974 6.92629 0.0729023 -7.36602 -17.3156 -24.6806 2.03217e-16 0.0 3.88251e-19 9.17064 1.68482 -1.67981 -0.00441294 -2.37349 -0.02574 -0.193028 -5.00992 -3.44492
35.2324 85.1172 28.253 0.5669 -0.9093 3.3652 2.56216 -10.2866 3.22529 -1.33459 2.36606 1.06814 -2.92519 19.013 -2.55635 9.16918 -27.9538 -2.90977 -0.0 0.0 0.0 -0.0 0.0 0.0 1.37465e-17 2.86238e-14 1.79403e-14 84.6957 26.7432 -1.80993 -11.6771 -5.22472 20.9865 -0.0501096 6.37528 0.899741 -4.16384e-10 1.24296e-11 4.37711e-10 -7.17836e-10 1.74708e-11 7.60285e-10 -4.16385e-10 1.24344e-11 4.37705e-10 7.73091 5.47488 0.417314 -4.16387e-10 1.24379e-11 4.37708e-10 2.90554 0.965183 0.102902 -4.16379e-10 1.24394e-11 4.37721e-10 10.2786 0.731801 0.0259123 -4.16382e-10 1.24388e-11 4.37733e-10 2.22167 -0.733487 -0.20892 -1.13148e-16 2.8625e-14 1.78409e-14 -76.9954 34.6057 -6.49178 10.5472 -4.48057 -18.8316 0.053121 -6.56301 0.926467 9.36164e-11 -6.20122e-10 -3.38669e-10 1.63102e-10 -1.07314e-09 -5.85488e-10 9.36061e-11 -6.20116e-10 -3.3865e-10 -7.73091 5.47488 -0.417314 9.36173e-11 -6.20124e-10 -3.38669e-10 -2.90554 0.965183 -0.102902 9.36083e-11 -6.20124e-10 -3.38669e-10 -10.2786 0.731801 -0.0259123 9.36176e-11 -6.20123e-10 -3.38675e-10 -2.22167 -0.733487 0.20892 -2.03217e-16 0.0 -3.88251e-19 -0.331656 -1.77007 12.0157 0.00631695 6.9752 0.0743733 -7.07766 -17.0513 -24.0708 2.03217e-16 0.0 3.88251e-19 8.93182 1.73901 -2.03938 -0.00552157 -2.5447 -0.0213113 -0.00872943 -4.1613 -2.57805
